<svg width="8" height="8" viewBox="0 0 8 8" fill="none" xmlns="http://www.w3.org/2000/svg">
<path fill-rule="evenodd" clip-rule="evenodd" d="M7.26457 7.68225C7.42872 7.84625 7.69486 7.84625 7.85901 7.68225C8.02316 7.51824 8.02316 7.25234 7.85901 7.08833L4.69534 3.92748L7.87148 0.754173C8.04249 0.583309 8.04249 0.306285 7.87148 0.135421C7.70046 -0.0354425 7.42319 -0.0354419 7.25217 0.135421L4.07604 3.30873L0.887473 0.123003C0.723324 -0.041001 0.457184 -0.0410011 0.293034 0.123003C0.128884 0.287007 0.128885 0.552909 0.293034 0.716913L3.4816 3.90264L0.305502 7.07591C0.134486 7.24678 0.134486 7.5238 0.305502 7.69466C0.476517 7.86553 0.753789 7.86553 0.924805 7.69466L4.1009 4.52139L7.26457 7.68225Z" fill="#DDDDDD"/>
</svg>

