<svg width="16" height="14" viewBox="0 0 16 14" fill="none" xmlns="http://www.w3.org/2000/svg">
<path fill-rule="evenodd" clip-rule="evenodd" d="M0 1.36111C0 0.609778 0.6272 0 1.4 0H5.3768C5.8408 0 6.2728 0.222445 6.5344 0.595L7.6576 2.19956C7.67591 2.22589 7.70058 2.24746 7.72945 2.26237C7.75832 2.27729 7.79051 2.2851 7.8232 2.28511H14.6C15.3728 2.28511 16 2.89411 16 3.64622V12.6389C16 12.9999 15.8525 13.3461 15.5899 13.6013C15.3274 13.8566 14.9713 14 14.6 14H1.4C1.0287 14 0.672602 13.8566 0.410051 13.6013C0.1475 13.3461 0 12.9999 0 12.6389V1.36111Z" fill="#DDDDDD"/>
</svg>
