<svg width="18" height="18" viewBox="0 0 18 18" fill="none" xmlns="http://www.w3.org/2000/svg">
<path d="M15.0638 8.61918H14C13.9796 8.61918 13.96 8.61108 13.9456 8.59665C13.9312 8.58223 13.9231 8.56266 13.9231 8.54226V5.57147C13.9231 5.17507 13.7656 4.79491 13.4853 4.51462C13.205 4.23432 12.8249 4.07685 12.4285 4.07685H9.45769C9.43729 4.07685 9.41773 4.06875 9.4033 4.05432C9.38887 4.03989 9.38077 4.02033 9.38077 3.99993V2.93607C9.38077 1.89222 8.55385 1.01837 7.51 1.00029C7.25709 0.995851 7.00584 1.04182 6.77089 1.13551C6.53594 1.22921 6.322 1.36876 6.14155 1.54602C5.96111 1.72328 5.81777 1.9347 5.7199 2.16794C5.62204 2.40119 5.5716 2.65159 5.57154 2.90454V3.99993C5.57154 4.02033 5.56343 4.03989 5.54901 4.05432C5.53458 4.06875 5.51502 4.07685 5.49462 4.07685H2.52385C2.12007 4.07807 1.73318 4.23901 1.44767 4.52452C1.16216 4.81004 1.00122 5.19693 1 5.6007V8.30764C1 8.32804 1.0081 8.34761 1.02253 8.36204C1.03696 8.37646 1.05652 8.38457 1.07692 8.38457H2.11192C3.24154 8.38457 4.17654 9.36457 4.19231 10.4942C4.20846 11.643 3.28808 12.6923 2.14269 12.6923H1.07692C1.05652 12.6923 1.03696 12.7004 1.02253 12.7148C1.0081 12.7292 1 12.7488 1 12.7692V15.4761C1.00122 15.8799 1.16216 16.2668 1.44767 16.5523C1.73318 16.8378 2.12007 16.9988 2.52385 17H5.23077C5.25117 17 5.27074 16.9919 5.28516 16.9775C5.29959 16.963 5.30769 16.9435 5.30769 16.9231V16.1181C5.30769 14.9535 6.25962 13.9508 7.42308 13.9234C8.58077 13.8965 9.61538 14.7046 9.61538 15.8573V16.9231C9.61538 16.9435 9.62349 16.963 9.63792 16.9775C9.65234 16.9919 9.67191 17 9.69231 17H12.4285C12.8249 17 13.205 16.8425 13.4853 16.5622C13.7656 16.2819 13.9231 15.9018 13.9231 15.5054V12.5054C13.9231 12.485 13.9312 12.4654 13.9456 12.451C13.96 12.4365 13.9796 12.4284 14 12.4284H15.0954C16.1581 12.4284 17 11.5565 17 10.49C17 9.42342 16.1077 8.61918 15.0638 8.61918V8.61918Z" stroke="#AAAAAA" stroke-width="1.25" stroke-linecap="round" stroke-linejoin="round"/>
</svg>
