<svg width="12" height="12" viewBox="0 0 12 12" fill="none" xmlns="http://www.w3.org/2000/svg">
<path d="M11.7738 5.46531L6.53403 0.226371C6.46229 0.154605 6.37711 0.0976747 6.28335 0.0588333C6.1896 0.0199918 6.08911 0 5.98762 0C5.88614 0 5.78565 0.0199918 5.6919 0.0588333C5.59814 0.0976747 5.51296 0.154605 5.44122 0.226371L4.2239 1.44349L5.1397 2.35914C5.34975 2.25848 5.58586 2.22548 5.81547 2.2647C6.04507 2.30392 6.25684 2.41342 6.42154 2.5781C6.58625 2.74278 6.69577 2.95451 6.735 3.18408C6.77423 3.41364 6.74122 3.64972 6.64054 3.85973L8.14062 5.35957C8.38011 5.2452 8.65233 5.21915 8.90916 5.28605C9.16599 5.35294 9.3909 5.50846 9.54414 5.72513C9.69737 5.94179 9.76907 6.20564 9.74655 6.47004C9.72403 6.73444 9.60875 6.98237 9.42108 7.17001C9.23342 7.35765 8.98544 7.47291 8.721 7.49542C8.45655 7.51794 8.19266 7.44625 7.97596 7.29304C7.75926 7.13983 7.60372 6.91496 7.53681 6.65817C7.46991 6.40138 7.49595 6.12921 7.61034 5.88976L6.11026 4.38992C6.0743 4.40703 6.0375 4.42229 6 4.43567V7.56358C6.25022 7.65203 6.46111 7.82608 6.5954 8.05496C6.72968 8.28384 6.77872 8.55281 6.73384 8.81435C6.68896 9.07588 6.55306 9.31313 6.35014 9.48416C6.14723 9.6552 5.89038 9.74901 5.62498 9.74901C5.35958 9.74901 5.10273 9.6552 4.89981 9.48416C4.6969 9.31313 4.56099 9.07588 4.51611 8.81435C4.47124 8.55281 4.52027 8.28384 4.65456 8.05496C4.78885 7.82608 4.99974 7.65203 5.24996 7.56358V4.43567C5.10115 4.38313 4.96507 4.29988 4.85055 4.19133C4.73603 4.08278 4.64562 3.95135 4.58522 3.80559C4.52481 3.65983 4.49574 3.50299 4.49991 3.34526C4.50408 3.18754 4.54139 3.03245 4.60942 2.89008L3.69361 1.97443L0.226162 5.44131C0.0813374 5.5864 0 5.78302 0 5.988C0 6.19299 0.0813374 6.3896 0.226162 6.53469L5.46597 11.7736C5.53771 11.8454 5.62289 11.9023 5.71665 11.9412C5.8104 11.98 5.91089 12 6.01238 12C6.11386 12 6.21435 11.98 6.3081 11.9412C6.40186 11.9023 6.48704 11.8454 6.55878 11.7736L11.7738 6.55944C11.9187 6.41435 12 6.21773 12 6.01275C12 5.80776 11.9187 5.61115 11.7738 5.46606V5.46531Z" fill="#AAAAAA"/>
</svg>