<svg width="22" height="22" viewBox="0 0 22 22" fill="none" xmlns="http://www.w3.org/2000/svg">
<path d="M6.875 6.1875C8.01409 6.1875 8.9375 5.26409 8.9375 4.125C8.9375 2.98591 8.01409 2.0625 6.875 2.0625C5.73591 2.0625 4.8125 2.98591 4.8125 4.125C4.8125 5.26409 5.73591 6.1875 6.875 6.1875Z" stroke="#AAAAAA" stroke-linecap="round" stroke-linejoin="round"/>
<path d="M6.875 19.9375C8.01409 19.9375 8.9375 19.0141 8.9375 17.875C8.9375 16.7359 8.01409 15.8125 6.875 15.8125C5.73591 15.8125 4.8125 16.7359 4.8125 17.875C4.8125 19.0141 5.73591 19.9375 6.875 19.9375Z" stroke="#AAAAAA" stroke-linecap="round" stroke-linejoin="round"/>
<path d="M6.875 15.8125V6.1875" stroke="#AAAAAA" stroke-linecap="round" stroke-linejoin="round"/>
<path d="M15.125 8.9375C16.2641 8.9375 17.1875 8.01409 17.1875 6.875C17.1875 5.73591 16.2641 4.8125 15.125 4.8125C13.9859 4.8125 13.0625 5.73591 13.0625 6.875C13.0625 8.01409 13.9859 8.9375 15.125 8.9375Z" stroke="#AAAAAA" stroke-linecap="round" stroke-linejoin="round"/>
<path d="M15.125 8.9375C15.125 14.4375 6.875 11 6.875 15.8125" stroke="#AAAAAA" stroke-linecap="round" stroke-linejoin="round"/>
</svg>
